<svg xmlns="http://www.w3.org/2000/svg" viewBox="0 0 16 15" fill="none">
<path d="M15.437 11.516L10.012 2.11998C9.59205 1.39298 8.84005 0.958984 8.00005 0.958984C7.16005 0.958984 6.40805 1.39298 5.98805 2.11998L0.563047 11.516C0.143047 12.243 0.143047 13.111 0.563047 13.838C0.983047 14.566 1.73505 15 2.57505 15H13.425C14.265 15 15.017 14.566 15.437 13.838C15.857 13.111 15.857 12.243 15.437 11.516ZM7.25005 5.49998C7.25005 5.08598 7.58605 4.74998 8.00005 4.74998C8.41405 4.74998 8.75005 5.08598 8.75005 5.49998V8.99998C8.75005 9.41398 8.41405 9.74998 8.00005 9.74998C7.58605 9.74998 7.25005 9.41398 7.25005 8.99998V5.49998ZM8.00005 12.569C7.44805 12.569 7.00005 12.12 7.00005 11.569C7.00005 11.018 7.44805 10.569 8.00005 10.569C8.55205 10.569 9.00005 11.018 9.00005 11.569C9.00005 12.12 8.55205 12.569 8.00005 12.569Z" fill="currentColor"/>
</svg>