<svg xmlns="http://www.w3.org/2000/svg"  viewBox="0 0 24 24" fill="none">
<path d="M12.0002 1.33337C6.11883 1.33337 1.3335 6.11871 1.3335 12C1.3335 17.8814 6.11883 22.6667 12.0002 22.6667C17.8815 22.6667 22.6668 17.8814 22.6668 12C22.6668 6.11871 17.8815 1.33337 12.0002 1.33337ZM12.0002 20C7.58816 20 4.00016 16.412 4.00016 12C4.00016 7.58804 7.58816 4.00004 12.0002 4.00004C16.4122 4.00004 20.0002 7.58804 20.0002 12C20.0002 16.412 16.4122 20 12.0002 20Z" fill="currentColor"/>
<path d="M10.6668 16C10.3255 16 9.98416 15.8694 9.72416 15.6094L7.0575 12.9427C6.53616 12.4214 6.53616 11.5787 7.0575 11.0574C7.57883 10.536 8.4215 10.536 8.94283 11.0574L10.6668 12.7814L15.0575 8.39071C15.5788 7.86937 16.4215 7.86937 16.9428 8.39071C17.4642 8.91204 17.4642 9.75471 16.9428 10.276L11.6095 15.6094C11.3495 15.8694 11.0082 16 10.6668 16Z" fill="currentColor"/>
</svg>